<?xml version="1.0" encoding="utf-8"?>
<COLLADA xmlns="http://www.collada.org/2005/11/COLLADASchema" version="1.4.1" xmlns:xsi="http://www.w3.org/2001/XMLSchema-instance">
  <asset>
    <contributor>
      <author>Blender User</author>
      <authoring_tool>Blender 4.5.1 LTS commit date:2025-07-29, commit time:05:31, hash:b0a72b245dcf</authoring_tool>
    </contributor>
    <created>2025-08-06T22:27:19</created>
    <modified>2025-08-06T22:27:19</modified>
    <unit name="meter" meter="1"/>
    <up_axis>Z_UP</up_axis>
  </asset>
  <library_cameras>
    <camera id="Camera-camera" name="Camera">
      <optics>
        <technique_common>
          <perspective>
            <xfov sid="xfov">39.59775</xfov>
            <aspect_ratio>1.777778</aspect_ratio>
            <znear sid="znear">0.1</znear>
            <zfar sid="zfar">100</zfar>
          </perspective>
        </technique_common>
      </optics>
      <extra>
        <technique profile="blender">
          <shiftx sid="shiftx" type="float">0</shiftx>
          <shifty sid="shifty" type="float">0</shifty>
          <dof_distance sid="dof_distance" type="float">10</dof_distance>
        </technique>
      </extra>
    </camera>
  </library_cameras>
  <library_lights>
    <light id="Light-light" name="Light">
      <technique_common>
        <point>
          <color sid="color">1000 1000 1000</color>
          <constant_attenuation>1</constant_attenuation>
          <linear_attenuation>0</linear_attenuation>
          <quadratic_attenuation>0</quadratic_attenuation>
        </point>
      </technique_common>
      <extra>
        <technique profile="blender">
          <type sid="type" type="int">0</type>
          <flag sid="flag" type="int">0</flag>
          <mode sid="mode" type="int">2097153</mode>
          <red sid="red" type="float">1</red>
          <green sid="green" type="float">1</green>
          <blue sid="blue" type="float">1</blue>
          <energy sid="blender_energy" type="float">1000</energy>
          <spotsize sid="spotsize" type="float">75</spotsize>
          <spotblend sid="spotblend" type="float">0.15</spotblend>
          <clipsta sid="clipsta" type="float">0.04999995</clipsta>
          <clipend sid="clipend" type="float">40</clipend>
          <radius sid="radius" type="float">0.1</radius>
          <area_shape sid="area_shape" type="int">1</area_shape>
          <area_size sid="area_size" type="float">0.1</area_size>
          <area_sizey sid="area_sizey" type="float">0.1</area_sizey>
          <area_sizez sid="area_sizez" type="float">1</area_sizez>
        </technique>
      </extra>
    </light>
  </library_lights>
  <library_effects>
    <effect id="Material-effect">
      <profile_COMMON>
        <newparam sid="Untitled-surface">
          <surface type="2D">
            <init_from>Untitled</init_from>
          </surface>
        </newparam>
        <newparam sid="Untitled-sampler">
          <sampler2D>
            <source>Untitled-surface</source>
          </sampler2D>
        </newparam>
        <technique sid="common">
          <lambert>
            <emission>
              <color sid="emission">0 0 0 1</color>
            </emission>
            <diffuse>
              <texture texture="Untitled-sampler" texcoord="UVMap"/>
            </diffuse>
            <index_of_refraction>
              <float sid="ior">1.5</float>
            </index_of_refraction>
          </lambert>
        </technique>
      </profile_COMMON>
    </effect>
  </library_effects>
  <library_images>
    <image id="Untitled" name="Untitled">
      <init_from>Untitled.png</init_from>
    </image>
  </library_images>
  <library_materials>
    <material id="Material-material" name="Material">
      <instance_effect url="#Material-effect"/>
    </material>
  </library_materials>
  <library_geometries>
    <geometry id="Cylinder-mesh" name="Cylinder">
      <mesh>
        <source id="Cylinder-mesh-positions">
          <float_array id="Cylinder-mesh-positions-array" count="204">0 1 -1 0 1 1 0.1950903 0.9807853 -1 0.1950903 0.9807853 1 0.3826835 0.9238795 -1 0.3826835 0.9238795 1 0.5555703 0.8314696 -1 0.5555703 0.8314696 1 0.7071068 0.7071068 -1 0.7071068 0.7071068 1 0.8314696 0.5555703 -1 0.8314696 0.5555703 1 0.9238795 0.3826835 -1 0.9238795 0.3826835 1 0.9807853 0.1950903 -1 0.9807853 0.1950903 1 1 0 -1 1 0 1 0.9807853 -0.1950903 -1 0.9807853 -0.1950903 1 0.9238795 -0.3826835 -1 0.9238795 -0.3826835 1 0.8314696 -0.5555703 -1 0.8314696 -0.5555703 1 0.7071068 -0.7071068 -1 0.7071068 -0.7071068 1 0.5555703 -0.8314696 -1 0.5555703 -0.8314696 1 0.3826835 -0.9238795 -1 0.3826835 -0.9238795 1 0.1950903 -0.9807853 -1 0.1950903 -0.9807853 1 0 -1 -1 0 -1 1 -0.1950903 -0.9807853 -1 -0.1950903 -0.9807853 1 -0.3826835 -0.9238795 -1 -0.3826835 -0.9238795 1 -0.5555703 -0.8314696 -1 -0.5555703 -0.8314696 1 -0.7071068 -0.7071068 -1 -0.7071068 -0.7071068 1 -0.8314696 -0.5555703 -1 -0.8314696 -0.5555703 1 -0.9238795 -0.3826835 -1 -0.9238795 -0.3826835 1 -0.9807853 -0.1950903 -1 -0.9807853 -0.1950903 1 -1 0 -1 -1 0 1 -0.9807853 0.1950903 -1 -0.9807853 0.1950903 1 -0.9238795 0.3826835 -1 -0.9238795 0.3826835 1 -0.8314696 0.5555703 -1 -0.8314696 0.5555703 1 -0.7071068 0.7071068 -1 -0.7071068 0.7071068 1 -0.5555703 0.8314696 -1 -0.5555703 0.8314696 1 -0.3826835 0.9238795 -1 -0.3826835 0.9238795 1 -0.1950903 0.9807853 -1 -0.1950903 0.9807853 1 0.9238795 -0.3826835 -1 0.9238795 -0.3826835 1 0.9238795 -0.3826835 -1 0.9238795 -0.3826835 1</float_array>
          <technique_common>
            <accessor source="#Cylinder-mesh-positions-array" count="68" stride="3">
              <param name="X" type="float"/>
              <param name="Y" type="float"/>
              <param name="Z" type="float"/>
            </accessor>
          </technique_common>
        </source>
        <source id="Cylinder-mesh-normals">
          <float_array id="Cylinder-mesh-normals-array" count="384">0.09801727 0.9951847 0 0.2902846 0.9569404 0 0.4713967 0.8819213 0 0.6343933 0.7730104 0 0.7730104 0.6343933 0 0.8819213 0.4713967 0 0.9569404 0.2902846 0 0.9951847 0.09801727 0 0.9951847 -0.09801727 0 0.9569404 -0.2902846 0 0.8819213 -0.4713967 0 0.7730104 -0.6343933 0 0.6343933 -0.7730104 0 0.4713967 -0.8819213 0 0.2902846 -0.9569404 0 0.09801727 -0.9951847 0 -0.09801727 -0.9951847 0 -0.2902846 -0.9569404 0 -0.4713967 -0.8819213 0 -0.6343933 -0.7730104 0 -0.7730104 -0.6343933 0 -0.8819213 -0.4713967 0 -0.9569404 -0.2902846 0 -0.9951847 -0.09801727 0 -0.9951847 0.09801727 0 -0.9569404 0.2902846 0 -0.8819213 0.4713967 0 -0.7730104 0.6343933 0 -0.6343933 0.7730104 0 -0.4713967 0.8819213 0 0 0 1 -0.2902846 0.9569404 0 -0.09801727 0.9951847 0 0 0 -1 0 0 1 0 0 1 0.09801727 0.9951847 0 0.2902846 0.9569404 0 0.4713967 0.8819213 0 0.6343933 0.7730104 0 0.7730104 0.6343933 0 0.8819213 0.4713967 0 0.9569404 0.2902846 0 0.9951847 0.09801727 0 0.9951847 -0.09801727 0 0.9569404 -0.2902846 0 0.8819213 -0.4713967 0 0.7730104 -0.6343933 0 0.6343933 -0.7730104 0 0.4713967 -0.8819213 0 0.2902846 -0.9569404 0 0.09801727 -0.9951847 0 -0.09801727 -0.9951847 0 -0.2902846 -0.9569404 0 -0.4713967 -0.8819213 0 -0.6343933 -0.7730104 0 -0.7730104 -0.6343933 0 -0.8819213 -0.4713967 0 -0.9569404 -0.2902846 0 -0.9951847 -0.09801727 0 -0.9951847 0.09801727 0 -0.9569404 0.2902846 0 -0.8819213 0.4713967 0 -0.7730104 0.6343933 0 -0.6343933 0.7730104 0 -0.4713967 0.8819213 0 0 0 1 0 0 1 0 0 1 0 0 1 0 0 1 0 0 1 0 0 1 0 0 1 0 0 1 0 0 1 0 0 1 0 0 1 0 0 1 0 0 1 0 0 1 0 0 1 0 0 1 0 0 1 0 0 1 0 0 1 0 0 1 0 0 1 0 0 1 0 0 1 0 0 1 0 0 1 0 0 1 0 0 1 0 0 1 -0.2902846 0.9569404 0 -0.09801727 0.9951847 0 0 0 -1 0 0 -1 0 0 -1 0 0 -1 0 0 -1 0 0 -1 0 0 -1 0 0 -1 0 0 -1 0 0 -1 0 0 -1 0 0 -1 0 0 -1 0 0 -1 0 0 -1 0 0 -1 0 0 -1 0 0 -1 0 0 -1 0 0 -1 0 0 -1 0 0 -1 0 0 -1 0 0 -1 0 0 -1 0 0 -1 0 0 -1 0 0 -1 0 0 -1 0 0 1 0 0 1</float_array>
          <technique_common>
            <accessor source="#Cylinder-mesh-normals-array" count="128" stride="3">
              <param name="X" type="float"/>
              <param name="Y" type="float"/>
              <param name="Z" type="float"/>
            </accessor>
          </technique_common>
        </source>
        <source id="Cylinder-mesh-map-0">
          <float_array id="Cylinder-mesh-map-0-array" count="768">0.5954822 0.4162178 0.6354947 0.8324356 0.5954822 0.8324356 0.6354947 0.4162178 0.6731858 0.8324356 0.6354947 0.8324356 0.6731858 0.4162178 0.7071068 0.8324356 0.6731858 0.8324356 0.4142135 0 0.443061 0.4162178 0.4142135 0.4162178 0.443061 0 0.4769821 0.4162178 0.443061 0.4162178 0.4769821 0 0.5146731 0.4162178 0.4769821 0.4162178 0.5146731 0 0.5546857 0.4162178 0.5146731 0.4162178 0.5546857 0 0.5954822 0.4162178 0.5546857 0.4162178 0.5954822 0 0.6354947 0.4162178 0.5954822 0.4162178 0.6354947 0 0.6731858 0.4162178 0.6354947 0.4162178 0.6731858 0 0.7071068 0.4162178 0.6731858 0.4162178 0.7071068 0 0.7359542 0.4162178 0.7071068 0.4162178 0.7071068 0.4162178 0.7359543 0.8324356 0.7071068 0.8324356 0.7359543 0.4162178 0.7698753 0.8324356 0.7359543 0.8324356 0.7698753 0.4162178 0.8075664 0.8324356 0.7698753 0.8324356 0.8075664 0.4162178 0.847579 0.8324356 0.8075664 0.8324356 0.847579 0.4162178 0.8883754 0.8324356 0.847579 0.8324356 0.8883754 0.4162178 0.928388 0.8324356 0.8883754 0.8324356 0.928388 0.4162178 0.966079 0.8324356 0.928388 0.8324356 0.966079 0.4162178 1 0.8324356 0.966079 0.8324356 0.7359543 0 0.7698753 0.4162178 0.7359543 0.4162178 0.7698753 0 0.8075664 0.4162178 0.7698753 0.4162178 0.8075664 0 0.847579 0.4162178 0.8075664 0.4162178 0.847579 0 0.8883754 0.4162178 0.847579 0.4162178 0.8883754 0 0.928388 0.4162178 0.8883754 0.4162178 0.928388 0 0.966079 0.4162178 0.928388 0.4162178 0.966079 0 1 0.4162178 0.966079 0.4162178 0.4142135 0.4162178 0.443061 0.8324356 0.4142135 0.8324356 0.443061 0.4162178 0.4769821 0.8324356 0.443061 0.8324356 0.4769821 0.4162178 0.5146731 0.8324356 0.4769821 0.8324356 0.3052086 0.02357113 0.3906425 0.3052086 0.109005 0.3906425 0.5146731 0.4162178 0.5546857 0.8324356 0.5146731 0.8324356 0.5546857 0.4162178 0.5954822 0.8324356 0.5546857 0.8324356 0.3391297 0.46045 0.3679772 0.7533432 0.07508397 0.7821907 0.6731858 0 0.6731858 0.4162178 0.6731858 0 0.6731858 0 0.6731858 0.4162178 0.6731858 0 0.5954822 0.4162178 0.6354947 0.4162178 0.6354947 0.8324356 0.6354947 0.4162178 0.6731858 0.4162178 0.6731858 0.8324356 0.6731858 0.4162178 0.7071068 0.4162178 0.7071068 0.8324356 0.4142135 0 0.443061 0 0.443061 0.4162178 0.443061 0 0.4769821 0 0.4769821 0.4162178 0.4769821 0 0.5146731 0 0.5146731 0.4162178 0.5146731 0 0.5546857 0 0.5546857 0.4162178 0.5546857 0 0.5954822 0 0.5954822 0.4162178 0.5954822 0 0.6354947 0 0.6354947 0.4162178 0.6354947 0 0.6731858 0 0.6731858 0.4162178 0.6731858 0 0.7071068 0 0.7071068 0.4162178 0.7071068 0 0.7359542 0 0.7359542 0.4162178 0.7071068 0.4162178 0.7359543 0.4162178 0.7359543 0.8324356 0.7359543 0.4162178 0.7698753 0.4162178 0.7698753 0.8324356 0.7698753 0.4162178 0.8075664 0.4162178 0.8075664 0.8324356 0.8075664 0.4162178 0.847579 0.4162178 0.847579 0.8324356 0.847579 0.4162178 0.8883754 0.4162178 0.8883754 0.8324356 0.8883754 0.4162178 0.928388 0.4162178 0.928388 0.8324356 0.928388 0.4162178 0.966079 0.4162178 0.966079 0.8324356 0.966079 0.4162178 1 0.4162178 1 0.8324356 0.7359543 0 0.7698753 0 0.7698753 0.4162178 0.7698753 0 0.8075664 0 0.8075664 0.4162178 0.8075664 0 0.847579 0 0.847579 0.4162178 0.847579 0 0.8883754 0 0.8883754 0.4162178 0.8883754 0 0.928388 0 0.928388 0.4162178 0.928388 0 0.966079 0 0.966079 0.4162178 0.966079 0 1 0 1 0.4162178 0.4142135 0.4162178 0.443061 0.4162178 0.443061 0.8324356 0.443061 0.4162178 0.4769821 0.4162178 0.4769821 0.8324356 0.4769821 0.4162178 0.5146731 0.4162178 0.5146731 0.8324356 0.109005 0.3906425 0.07508391 0.3679772 0.04623645 0.3391297 0.04623645 0.3391297 0.02357113 0.3052086 0.109005 0.3906425 0.02357113 0.3052086 0.007959008 0.2675176 0.109005 0.3906425 0.007959008 0.2675176 0 0.227505 0 0.1867086 0 0.1867086 0.007959008 0.146696 0.02357113 0.1090049 0.02357113 0.1090049 0.04623645 0.07508391 0.07508391 0.04623645 0.07508391 0.04623645 0.1090049 0.02357113 0.02357113 0.1090049 0.1090049 0.02357113 0.146696 0.007959008 0.02357113 0.1090049 0.146696 0.007959008 0.1867085 0 0.227505 0 0.227505 0 0.2675176 0.007959008 0.3052086 0.02357113 0.3052086 0.02357113 0.3391296 0.04623645 0.4062546 0.1466959 0.3391296 0.04623645 0.3679772 0.07508391 0.4062546 0.1466959 0.3679772 0.07508391 0.3906424 0.1090049 0.4062546 0.1466959 0.4062546 0.1466959 0.4142136 0.1867085 0.4142136 0.227505 0.4142136 0.227505 0.4062546 0.2675176 0.3906425 0.3052086 0.3906425 0.3052086 0.3679772 0.3391296 0.2675176 0.4062545 0.3679772 0.3391296 0.3391297 0.3679771 0.2675176 0.4062545 0.3391297 0.3679771 0.3052087 0.3906424 0.2675176 0.4062545 0.2675176 0.4062545 0.227505 0.4142135 0.1867086 0.4142135 0.1867086 0.4142135 0.146696 0.4062546 0.109005 0.3906425 0.007959008 0.2675176 0 0.1867086 0.109005 0.3906425 0 0.1867086 0.02357113 0.1090049 0.109005 0.3906425 0.146696 0.007959008 0.227505 0 0.02357113 0.1090049 0.227505 0 0.3052086 0.02357113 0.02357113 0.1090049 0.4062546 0.1466959 0.4142136 0.227505 0.3052086 0.02357113 0.4142136 0.227505 0.3906425 0.3052086 0.3052086 0.02357113 0.2675176 0.4062545 0.1867086 0.4142135 0.3906425 0.3052086 0.1867086 0.4142135 0.109005 0.3906425 0.3906425 0.3052086 0.109005 0.3906425 0.02357113 0.1090049 0.3052086 0.02357113 0.5146731 0.4162178 0.5546857 0.4162178 0.5546857 0.8324356 0.5546857 0.4162178 0.5954822 0.4162178 0.5954822 0.8324356 0.07508397 0.7821907 0.04623645 0.7533432 0.02357119 0.7194222 0.02357119 0.7194222 0.007959008 0.6817312 0 0.6417186 0 0.6417186 0 0.6009222 0.007959008 0.5609096 0.007959008 0.5609096 0.02357113 0.5232185 0.04623645 0.4892975 0.04623645 0.4892975 0.07508391 0.46045 0.1090049 0.4377847 0.1090049 0.4377847 0.146696 0.4221726 0.1867085 0.4142136 0.1867085 0.4142136 0.227505 0.4142136 0.2675176 0.4221726 0.2675176 0.4221726 0.3052086 0.4377847 0.3391297 0.46045 0.3391297 0.46045 0.3679772 0.4892975 0.3906425 0.5232185 0.3906425 0.5232185 0.4062546 0.5609095 0.4142136 0.6009221 0.4142136 0.6009221 0.4142136 0.6417186 0.4062546 0.6817312 0.4062546 0.6817312 0.3906425 0.7194222 0.3679772 0.7533432 0.3679772 0.7533432 0.3391297 0.7821907 0.3052087 0.804856 0.3052087 0.804856 0.2675176 0.8204681 0.227505 0.8284271 0.227505 0.8284271 0.1867086 0.8284271 0.146696 0.8204681 0.146696 0.8204681 0.109005 0.804856 0.07508397 0.7821907 0.07508397 0.7821907 0.02357119 0.7194222 0.04623645 0.4892975 0.02357119 0.7194222 0 0.6417186 0.04623645 0.4892975 0 0.6417186 0.007959008 0.5609096 0.04623645 0.4892975 0.04623645 0.4892975 0.1090049 0.4377847 0.3391297 0.46045 0.1090049 0.4377847 0.1867085 0.4142136 0.3391297 0.46045 0.1867085 0.4142136 0.2675176 0.4221726 0.3391297 0.46045 0.3391297 0.46045 0.3906425 0.5232185 0.3679772 0.7533432 0.3906425 0.5232185 0.4142136 0.6009221 0.3679772 0.7533432 0.4142136 0.6009221 0.4062546 0.6817312 0.3679772 0.7533432 0.3679772 0.7533432 0.3052087 0.804856 0.07508397 0.7821907 0.3052087 0.804856 0.227505 0.8284271 0.07508397 0.7821907 0.227505 0.8284271 0.146696 0.8204681 0.07508397 0.7821907 0.07508397 0.7821907 0.04623645 0.4892975 0.3391297 0.46045 0.6731858 0 0.6731858 0.4162178 0.6731858 0.4162178 0.6731858 0 0.6731858 0.4162178 0.6731858 0.4162178</float_array>
          <technique_common>
            <accessor source="#Cylinder-mesh-map-0-array" count="384" stride="2">
              <param name="S" type="float"/>
              <param name="T" type="float"/>
            </accessor>
          </technique_common>
        </source>
        <source id="Cylinder-mesh-colors-Attribute" name="Attribute">
          <float_array id="Cylinder-mesh-colors-Attribute-array" count="1536">1 1 1 1 1 1 1 1 1 1 1 1 1 1 1 1 1 1 1 1 1 1 1 1 1 1 1 1 1 1 1 1 1 1 1 1 1 1 1 1 1 1 1 1 1 1 1 1 1 1 1 1 1 1 1 1 1 1 1 1 1 1 1 0.8627451 1 1 1 1 1 1 1 1 1 1 1 1 1 1 1 1 1 1 1 1 1 1 1 1 1 1 1 1 1 1 1 1 1 1 1 1 1 1 1 1 1 1 1 1 1 1 1 1 1 1 1 1 1 1 1 1 1 1 1 1 1 1 1 1 1 1 1 1 1 1 1 1 1 1 1 1 1 1 1 1 1 1 1 1 1 1 1 1 1 1 1 1 1 1 1 1 1 1 1 0.7882353 1 1 1 1 1 1 1 1 1 1 1 1 1 1 1 0.7882353 1 1 1 1 1 1 1 1 1 1 1 1 1 1 1 1 1 1 1 1 1 1 1 1 1 1 1 1 1 1 1 1 1 1 1 1 1 1 1 1 1 1 1 1 1 1 1 1 1 1 1 1 1 1 1 1 1 1 1 1 1 1 1 0.9254902 1 1 1 1 1 1 1 1 1 1 1 0.9098039 1 1 1 1 1 1 1 1 1 1 1 1 1 1 1 1 1 1 1 1 1 1 1 1 1 1 1 1 1 1 1 1 1 1 1 1 1 1 1 1 1 1 1 1 1 1 1 1 1 1 1 1 1 1 1 1 1 1 1 1 1 1 1 1 1 1 1 1 1 1 1 1 1 1 1 1 1 1 1 1 1 1 1 1 1 1 1 1 1 1 1 1 1 1 1 1 1 1 1 1 1 1 1 1 1 1 1 1 1 1 1 1 1 1 1 1 1 1 1 1 1 1 1 1 1 1 1 1 1 1 1 1 1 1 1 1 1 1 1 1 1 1 1 1 1 1 1 1 1 1 1 1 1 1 1 1 1 1 1 1 1 1 1 1 1 1 1 1 1 1 1 1 1 1 1 1 1 1 1 1 1 1 1 1 1 1 1 1 1 1 1 1 1 1 1 1 1 1 1 1 1 1 1 1 1 1 1 1 1 1 1 1 1 1 1 1 1 1 1 1 1 1 1 1 1 1 1 1 1 1 1 0.8627451 1 1 1 1 1 1 1 0.8627451 1 1 1 1 1 1 1 1 1 1 1 1 1 1 1 1 1 1 1 1 1 1 1 1 1 1 1 1 1 1 1 1 1 1 1 1 1 1 1 1 1 1 1 1 1 1 1 1 1 1 1 1 1 1 1 1 1 1 1 1 1 1 1 1 1 1 1 1 1 1 1 1 1 1 1 1 1 1 1 1 1 1 1 1 1 1 1 1 1 1 1 1 1 1 1 1 1 1 1 1 1 1 1 0.7882353 1 1 1 1 1 1 1 1 1 1 1 1 1 1 1 1 1 1 1 1 1 1 1 1 1 1 1 1 1 1 1 1 1 1 1 1 1 1 1 1 1 1 1 1 1 1 1 1 1 1 1 1 1 1 1 1 1 1 1 1 1 1 1 1 1 1 1 0.9254902 1 1 1 1 1 1 1 0.9254902 1 1 1 0.9098039 1 1 1 1 1 1 1 0.9098039 1 1 1 1 1 1 1 1 1 1 1 1 1 1 1 1 1 1 1 1 1 1 1 1 1 1 1 1 1 1 1 1 1 1 1 1 1 1 1 1 1 1 1 1 1 1 1 1 1 1 1 1 1 1 1 1 1 1 1 1 1 1 1 1 1 1 1 1 1 1 1 1 1 1 1 1 1 1 1 1 1 1 1 1 1 1 1 1 1 1 1 1 1 1 1 1 1 1 1 1 1 1 1 1 1 1 1 1 1 1 1 1 1 1 1 1 1 1 1 1 1 1 1 1 1 1 1 1 1 1 1 1 1 1 1 1 1 1 1 1 1 1 1 1 1 1 1 1 1 1 1 1 1 1 1 1 1 1 1 1 1 1 1 1 1 1 1 1 1 1 1 1 1 1 1 1 1 1 1 1 1 1 1 1 1 1 1 1 1 1 1 1 1 1 1 1 1 1 1 1 1 1 1 1 1 1 1 0.9098039 1 1 1 0.9254902 1 1 1 0.9254902 1 1 1 1 1 1 1 1 1 1 1 1 1 1 1 1 1 1 1 1 1 1 1 1 1 1 1 1 1 1 1 1 1 1 1 1 1 1 1 1 1 1 1 1 1 1 1 1 1 1 1 1 1 1 1 1 1 1 1 1 1 1 1 1 1 1 1 1 1 1 1 1 1 1 1 1 1 1 1 1 1 1 1 1 1 1 1 1 1 1 1 1 1 1 1 1 1 1 1 1 1 1 1 1 1 1 1 1 1 1 1 0.8627451 1 1 1 1 1 1 1 1 1 1 1 1 1 1 1 1 1 1 1 1 1 1 1 1 1 1 1 1 1 1 1 1 1 1 1 1 1 1 1 1 1 1 1 1 1 1 1 0.9254902 1 1 1 1 1 1 1 0.9254902 1 1 1 1 1 1 1 1 1 1 1 1 1 1 1 1 1 1 1 1 1 1 1 1 1 1 1 1 1 1 1 1 1 1 1 1 1 1 1 1 1 1 1 1 1 1 1 1 1 1 1 1 1 1 1 1 1 1 1 1 1 1 1 1 1 1 1 1 1 1 1 1 1 1 1 1 1 1 1 1 1 1 1 1 1 1 1 1 1 1 1 1 1 1 1 1 1 1 1 1 1 1 1 1 1 1 1 1 1 1 1 1 1 1 1 1 1 1 1 1 1 1 1 1 1 1 1 1 1 1 1 1 1 1 1 1 1 1 1 1 1 1 1 1 1 1 1 1 1 1 1 1 1 1 1 1 1 1 1 1 1 1 1 1 1 1 1 1 1 1 1 1 1 1 1 1 1 1 1 1 1 1 1 0.7882353 1 1 1 1 1 1 1 1 1 1 1 1 1 1 1 1 1 1 1 1 1 1 1 1 1 1 1 1 1 1 1 1 1 1 1 1 1 1 1 1 1 1 1 1 1 1 1 1 1 1 1 1 1 1 1 1 1 1 1 1 1 1 1 1 1 1 1 1 1 1 1 1 1 1 1 1 1 1 1 1 1 1 1 1 1 1 1 1 1 1 1 1 1 1 1 1 1 1 1 1 1 1 1 1 1 1 1 1 1 1 1 1 1 1 1 1 1 1 1 1 1 1 1 1 1 1 1 1 1 1 1 1 1 1 1 1 1 1 1 1 1 1 1 1 1 1 1 1 1 1 1 1 1 1 1 1 1 1 1 1 1 1 1 1 1 1 1 1 1 1 1 1 1 1 1 1 1 1 1 1 1 1 1 1 1 1 1 1 1 1 1 1 1 1 1 1 1 1 1 1 1 1 1 1 1 1 1 1 1 1 1 1 1 1 1 1 1 1 1 1 1 1 1 1 1 1 1 1 1 1 1 1 1 1 1 1 1 1 1 1 1 1 1 1 1 1 1 1 1 1 1 1 1 1 1 1 1 1 1 1 1 1 1 1 1 1 1 1 1 1 1 1 1 1 1 1 1 1 1 1</float_array>
          <technique_common>
            <accessor source="#Cylinder-mesh-colors-Attribute-array" count="384" stride="4">
              <param name="R" type="float"/>
              <param name="G" type="float"/>
              <param name="B" type="float"/>
              <param name="A" type="float"/>
            </accessor>
          </technique_common>
        </source>
        <vertices id="Cylinder-mesh-vertices">
          <input semantic="POSITION" source="#Cylinder-mesh-positions"/>
        </vertices>
        <triangles material="Material-material" count="128">
          <input semantic="VERTEX" source="#Cylinder-mesh-vertices" offset="0"/>
          <input semantic="NORMAL" source="#Cylinder-mesh-normals" offset="1"/>
          <input semantic="TEXCOORD" source="#Cylinder-mesh-map-0" offset="2" set="0"/>
          <input semantic="COLOR" source="#Cylinder-mesh-colors-Attribute" offset="3" set="0"/>
          <p>1 0 0 0 2 0 1 1 0 0 2 2 3 1 3 3 4 1 4 4 2 1 5 5 5 2 6 6 6 2 7 7 4 2 8 8 7 3 9 9 8 3 10 10 6 3 11 11 9 4 12 12 10 4 13 13 8 4 14 14 11 5 15 15 12 5 16 16 10 5 17 17 13 6 18 18 14 6 19 19 12 6 20 20 15 7 21 21 16 7 22 22 14 7 23 23 17 8 24 24 18 8 25 25 16 8 26 26 19 9 27 27 20 9 28 28 18 9 29 29 21 10 30 30 22 10 31 31 20 10 32 32 23 11 33 33 24 11 34 34 22 11 35 35 25 12 36 36 26 12 37 37 24 12 38 38 27 13 39 39 28 13 40 40 26 13 41 41 29 14 42 42 30 14 43 43 28 14 44 44 31 15 45 45 32 15 46 46 30 15 47 47 33 16 48 48 34 16 49 49 32 16 50 50 35 17 51 51 36 17 52 52 34 17 53 53 37 18 54 54 38 18 55 55 36 18 56 56 39 19 57 57 40 19 58 58 38 19 59 59 41 20 60 60 42 20 61 61 40 20 62 62 43 21 63 63 44 21 64 64 42 21 65 65 45 22 66 66 46 22 67 67 44 22 68 68 47 23 69 69 48 23 70 70 46 23 71 71 49 24 72 72 50 24 73 73 48 24 74 74 51 25 75 75 52 25 76 76 50 25 77 77 53 26 78 78 54 26 79 79 52 26 80 80 55 27 81 81 56 27 82 82 54 27 83 83 57 28 84 84 58 28 85 85 56 28 86 86 59 29 87 87 60 29 88 88 58 29 89 89 37 30 90 90 21 30 91 91 5 30 92 92 61 31 93 93 62 31 94 94 60 31 95 95 63 32 96 96 0 32 97 97 62 32 98 98 30 33 99 99 46 33 100 100 62 33 101 101 21 34 102 102 64 34 103 103 65 34 104 104 65 35 105 105 66 35 106 106 67 35 107 107 1 36 108 108 3 36 109 109 2 36 110 110 3 37 111 111 5 37 112 112 4 37 113 113 5 38 114 114 7 38 115 115 6 38 116 116 7 39 117 117 9 39 118 118 8 39 119 119 9 40 120 120 11 40 121 121 10 40 122 122 11 41 123 123 13 41 124 124 12 41 125 125 13 42 126 126 15 42 127 127 14 42 128 128 15 43 129 129 17 43 130 130 16 43 131 131 17 44 132 132 19 44 133 133 18 44 134 134 19 45 135 135 21 45 136 136 20 45 137 137 21 46 138 138 23 46 139 139 22 46 140 140 23 47 141 141 25 47 142 142 24 47 143 143 25 48 144 144 27 48 145 145 26 48 146 146 27 49 147 147 29 49 148 148 28 49 149 149 29 50 150 150 31 50 151 151 30 50 152 152 31 51 153 153 33 51 154 154 32 51 155 155 33 52 156 156 35 52 157 157 34 52 158 158 35 53 159 159 37 53 160 160 36 53 161 161 37 54 162 162 39 54 163 163 38 54 164 164 39 55 165 165 41 55 166 166 40 55 167 167 41 56 168 168 43 56 169 169 42 56 170 170 43 57 171 171 45 57 172 172 44 57 173 173 45 58 174 174 47 58 175 175 46 58 176 176 47 59 177 177 49 59 178 178 48 59 179 179 49 60 180 180 51 60 181 181 50 60 182 182 51 61 183 183 53 61 184 184 52 61 185 185 53 62 186 186 55 62 187 187 54 62 188 188 55 63 189 189 57 63 190 190 56 63 191 191 57 64 192 192 59 64 193 193 58 64 194 194 59 65 195 195 61 65 196 196 60 65 197 197 5 66 198 198 3 66 199 199 1 66 200 200 1 67 201 201 63 67 202 202 5 67 203 203 63 68 204 204 61 68 205 205 5 68 206 206 61 69 207 207 59 69 208 208 57 69 209 209 57 70 210 210 55 70 211 211 53 70 212 212 53 71 213 213 51 71 214 214 49 71 215 215 49 72 216 216 47 72 217 217 53 72 218 218 47 73 219 219 45 73 220 220 53 73 221 221 45 74 222 222 43 74 223 223 41 74 224 224 41 75 225 225 39 75 226 226 37 75 227 227 37 76 228 228 35 76 229 229 29 76 230 230 35 77 231 231 33 77 232 232 29 77 233 233 33 78 234 234 31 78 235 235 29 78 236 236 29 79 237 237 27 79 238 238 25 79 239 239 25 80 240 240 23 80 241 241 21 80 242 242 21 81 243 243 19 81 244 244 13 81 245 245 19 82 246 246 17 82 247 247 13 82 248 248 17 83 249 249 15 83 250 250 13 83 251 251 13 84 252 252 11 84 253 253 9 84 254 254 9 85 255 255 7 85 256 256 5 85 257 257 61 86 258 258 57 86 259 259 5 86 260 260 57 87 261 261 53 87 262 262 5 87 263 263 45 88 264 264 41 88 265 265 53 88 266 266 41 89 267 267 37 89 268 268 53 89 269 269 29 90 270 270 25 90 271 271 37 90 272 272 25 91 273 273 21 91 274 274 37 91 275 275 13 92 276 276 9 92 277 277 21 92 278 278 9 93 279 279 5 93 280 280 21 93 281 281 5 94 282 282 53 94 283 283 37 94 284 284 61 95 285 285 63 95 286 286 62 95 287 287 63 96 288 288 1 96 289 289 0 96 290 290 62 97 291 291 0 97 292 292 2 97 293 293 2 98 294 294 4 98 295 295 6 98 296 296 6 99 297 297 8 99 298 298 10 99 299 299 10 100 300 300 12 100 301 301 14 100 302 302 14 101 303 303 16 101 304 304 18 101 305 305 18 102 306 306 20 102 307 307 22 102 308 308 22 103 309 309 24 103 310 310 26 103 311 311 26 104 312 312 28 104 313 313 30 104 314 314 30 105 315 315 32 105 316 316 34 105 317 317 34 106 318 318 36 106 319 319 38 106 320 320 38 107 321 321 40 107 322 322 42 107 323 323 42 108 324 324 44 108 325 325 46 108 326 326 46 109 327 327 48 109 328 328 50 109 329 329 50 110 330 330 52 110 331 331 54 110 332 332 54 111 333 333 56 111 334 334 58 111 335 335 58 112 336 336 60 112 337 337 62 112 338 338 62 113 339 339 2 113 340 340 14 113 341 341 2 114 342 342 6 114 343 343 14 114 344 344 6 115 345 345 10 115 346 346 14 115 347 347 14 116 348 348 18 116 349 349 30 116 350 350 18 117 351 351 22 117 352 352 30 117 353 353 22 118 354 354 26 118 355 355 30 118 356 356 30 119 357 357 34 119 358 358 46 119 359 359 34 120 360 360 38 120 361 361 46 120 362 362 38 121 363 363 42 121 364 364 46 121 365 365 46 122 366 366 50 122 367 367 62 122 368 368 50 123 369 369 54 123 370 370 62 123 371 371 54 124 372 372 58 124 373 373 62 124 374 374 62 125 375 375 14 125 376 376 30 125 377 377 21 126 378 378 20 126 379 379 64 126 380 380 65 127 381 381 64 127 382 382 66 127 383 383</p>
        </triangles>
      </mesh>
    </geometry>
  </library_geometries>
  <library_visual_scenes>
    <visual_scene id="Scene" name="Scene">
      <node id="Cylinder" name="Cylinder" type="NODE">
        <matrix sid="transform">0.03 0 0 0 0 0.03 0 0 0 0 0.01 0 0 0 0 1</matrix>
        <instance_geometry url="#Cylinder-mesh" name="Cylinder">
          <bind_material>
            <technique_common>
              <instance_material symbol="Material-material" target="#Material-material">
                <bind_vertex_input semantic="UVMap" input_semantic="TEXCOORD" input_set="0"/>
              </instance_material>
            </technique_common>
          </bind_material>
        </instance_geometry>
      </node>
      <node id="Camera" name="Camera" type="NODE">
        <matrix sid="transform">0.6859207 -0.3240135 0.6515582 7.358891 0.7276763 0.3054208 -0.6141704 -6.925791 0 0.8953956 0.4452714 4.958309 0 0 0 1</matrix>
        <instance_camera url="#Camera-camera"/>
      </node>
      <node id="Light" name="Light" type="NODE">
        <matrix sid="transform">-0.2908646 -0.7711008 0.5663932 4.076245 0.9551712 -0.1998834 0.2183912 1.005454 -0.05518906 0.6045247 0.7946723 5.903862 0 0 0 1</matrix>
        <instance_light url="#Light-light"/>
      </node>
    </visual_scene>
  </library_visual_scenes>
  <scene>
    <instance_visual_scene url="#Scene"/>
  </scene>
</COLLADA>